<?xml version="1.0" encoding="UTF-8" standalone="no"?><!DOCTYPE svg PUBLIC "-//W3C//DTD SVG 1.1//EN" "http://www.w3.org/Graphics/SVG/1.1/DTD/svg11.dtd"><svg width="100%" height="100%" viewBox="0 0 34 34" version="1.1" xmlns="http://www.w3.org/2000/svg" xmlns:xlink="http://www.w3.org/1999/xlink" xml:space="preserve" xmlns:serif="http://www.serif.com/" style="fill-rule:evenodd;clip-rule:evenodd;stroke-miterlimit:10;"><rect id="chip-favicon" x="-0" y="-0" width="34" height="34" style="fill:none;"/><path id="chip-cross-shape" d="M28.796,33.175l-23.592,-0l0,-20.541c0,-6.522 5.281,-11.809 11.796,-11.809l0,0c6.515,0 11.796,5.287 11.796,11.809l-0,20.541Z" style="fill:none;fill-rule:nonzero;"/><clipPath id="_clip1"><path d="M28.796,33.175l-23.592,-0l0,-20.541c0,-6.522 5.281,-11.809 11.796,-11.809l0,0c6.515,0 11.796,5.287 11.796,11.809l-0,20.541Z" clip-rule="nonzero"/></clipPath><g clip-path="url(#_clip1)"><g><path d="M14.23,27.348l-0.393,0.301c-0.216,-0.282 -0.477,-0.496 -0.78,-0.641c-0.303,-0.146 -0.637,-0.219 -1,-0.219c-0.397,0 -0.765,0.096 -1.103,0.286c-0.339,0.191 -0.601,0.447 -0.787,0.769c-0.187,0.321 -0.28,0.683 -0.28,1.084c0,0.607 0.209,1.114 0.625,1.52c0.416,0.406 0.941,0.609 1.575,0.609c0.698,0 1.281,-0.273 1.75,-0.819l0.393,0.298c-0.248,0.316 -0.558,0.56 -0.929,0.733c-0.371,0.172 -0.786,0.259 -1.244,0.259c-0.871,-0 -1.558,-0.29 -2.061,-0.87c-0.422,-0.49 -0.633,-1.081 -0.633,-1.774c-0,-0.728 0.255,-1.342 0.766,-1.839c0.511,-0.498 1.152,-0.746 1.921,-0.746c0.465,-0 0.885,0.092 1.259,0.275c0.375,0.184 0.682,0.442 0.921,0.774Z" style="fill:#ffcf40;fill-rule:nonzero;"/><path d="M15.221,26.424l0.501,-0l0,2.088l2.532,0l-0,-2.088l0.501,-0l-0,4.978l-0.501,0l-0,-2.403l-2.532,0l0,2.403l-0.501,0l0,-4.978Z" style="fill:#ffcf40;fill-rule:nonzero;"/><rect x="19.892" y="26.424" width="0.498" height="4.979" style="fill:#ffcf40;fill-rule:nonzero;"/><path d="M21.527,26.424l0.991,-0c0.569,-0 0.953,0.025 1.151,0.074c0.285,0.07 0.517,0.214 0.697,0.432c0.181,0.218 0.271,0.491 0.271,0.821c0,0.331 -0.088,0.605 -0.264,0.82c-0.176,0.216 -0.418,0.361 -0.727,0.435c-0.226,0.054 -0.648,0.081 -1.266,0.081l-0.356,0l0,2.315l-0.497,0l-0,-4.978Zm0.497,0.484l0,1.692l0.843,0.01c0.341,0 0.59,-0.031 0.748,-0.093c0.158,-0.062 0.282,-0.162 0.372,-0.301c0.091,-0.139 0.136,-0.294 0.136,-0.465c-0,-0.167 -0.045,-0.32 -0.136,-0.459c-0.09,-0.139 -0.209,-0.238 -0.357,-0.296c-0.147,-0.059 -0.389,-0.088 -0.726,-0.088l-0.88,-0Z" style="fill:#ffcf40;fill-rule:nonzero;"/></g><path id="shape" d="M17.319,14.805l2.587,-0l0,0.651l-0.689,-0l-0.014,0.011c-0.076,0.062 -0.162,0.113 -0.245,0.166c-0.147,0.095 -0.306,0.184 -0.439,0.299c-0.012,0.01 -0.033,0.044 -0.045,0.05c-0.238,0.109 -0.492,0.192 -0.72,0.332c-0.077,0.056 -0.183,0.077 -0.23,0.171c-0.059,0.049 -0.07,0.105 -0.051,0.176c-0.026,0.187 -0.033,0.368 0.021,0.55c0.003,0.152 -0.035,0.314 -0.007,0.465c0.028,0.206 0.223,0.408 0.046,0.601c-0.02,0.042 -0.015,0.097 -0.02,0.141c-0.047,0.229 -0.034,0.46 -0.077,0.688c-0.01,0.056 -0.045,0.115 -0.063,0.17c-0.021,0.063 -0.039,0.128 -0.054,0.193l-0,1.946l-0.652,-0l0,-3.328l-0.001,-0.002c-0.008,-0.02 -0.038,-0.059 -0.038,-0.079c-0.068,-0.128 -0.054,-0.273 -0.023,-0.408c-0.078,-0.332 -0.101,-0.671 -0.174,-1.004c-0.031,-0.269 -0.359,-0.293 -0.523,-0.457c-0.136,-0.081 -0.202,-0.249 -0.368,-0.269c-0.016,-0.002 -0.049,-0.041 -0.063,-0.052c-0.023,-0.019 -0.045,-0.038 -0.068,-0.057c-0.043,-0.037 -0.086,-0.075 -0.129,-0.112c-0.071,-0.063 -0.142,-0.127 -0.212,-0.191l-0.988,-0l-0,-0.651l2.587,-0l0,-2.21l0.652,0l-0,2.21Zm1.548,0.651l-0.019,0.009c-0.052,0.026 -0.104,0.052 -0.157,0.075c-0.027,0.012 -0.076,0.022 -0.098,0.041c-0.099,0.09 -0.191,0.164 -0.331,0.181c-0.145,0.029 -0.282,0.108 -0.43,0.123c-0.077,0.012 -0.139,-0.024 -0.208,-0.046c-0.103,0.009 -0.203,0.045 -0.305,0.065l-0,-0.448l1.548,-0Zm-3.455,-0l1.255,-0l0,0.075c-0.021,-0.001 -0.042,-0.001 -0.061,0.002c-0.045,0.007 -0.086,0.03 -0.129,0.044c-0.042,0.013 -0.082,0.032 -0.104,0.074c-0.024,0.048 -0.041,0.087 -0.042,0.142c0,0.022 0.004,0.046 0.011,0.07l-0.018,0.005c-0.029,0.008 -0.056,-0.002 -0.084,-0.007c-0.018,-0.003 -0.034,-0.001 -0.052,0.002c-0.025,0.003 -0.046,-0.002 -0.07,-0.011c-0.125,-0.043 -0.238,-0.116 -0.364,-0.157c-0.074,-0.085 -0.162,-0.147 -0.264,-0.2l-0.078,-0.039Z" style="fill:#ffcf40;"/></g><path d="M28.796,33.175l-23.592,-0l0,-20.541c0,-6.522 5.281,-11.809 11.796,-11.809l0,0c6.515,0 11.796,5.287 11.796,11.809l-0,20.541Z" style="fill:none;fill-rule:nonzero;stroke:#ffcf40;stroke-width:0.13px;"/></svg>